<svg xmlns="http://www.w3.org/2000/svg" xmlns:xlink="http://www.w3.org/1999/xlink" preserveAspectRatio="xMidYMid" width="52" height="52" viewBox="0 0 52 52">
  <defs>
    <style>
      .cls-1 {
        fill: #ff6d4a;
      }

      .cls-2 {
        fill: #fff;
        fill-rule: evenodd;
      }
    </style>
  </defs>
  <g>
    <circle cx="26" cy="26" r="26" class="cls-1"/>
    <path d="M46.000,27.571 L41.435,27.571 L41.435,32.286 L38.391,32.286 L38.391,27.571 L33.826,27.571 L33.826,24.429 L38.391,24.429 L38.391,19.714 L41.435,19.714 L41.435,24.429 L46.000,24.429 L46.000,27.571 ZM21.272,37.000 C15.599,37.000 11.000,32.075 11.000,26.000 C11.000,19.925 15.599,15.000 21.272,15.000 C24.266,15.000 26.952,16.381 28.830,18.569 L24.928,21.176 C23.938,20.264 22.664,19.714 21.272,19.714 C18.120,19.714 15.565,22.529 15.565,26.000 C15.565,29.471 18.120,32.286 21.272,32.286 C23.666,32.286 26.153,30.303 27.000,28.000 L21.000,28.000 L21.000,24.000 L27.000,24.000 L31.000,24.000 L32.000,24.000 L31.543,28.357 L31.301,28.357 C30.293,33.298 26.188,37.000 21.272,37.000 Z" class="cls-2"/>
  </g>
</svg>

